<svg width="150" height="150" data-name="Capa 2" xmlns="http://www.w3.org/2000/svg" viewBox="0 0 570.17 342.63">
  <defs>
    <style>.cls-1{fill:#fcfcfc;}</style>
  </defs>
  <g id="Capa_1" data-name="Capa 1">
    <polygon class="cls-1" points="394.06 340.86 478.2 170.43 394.04 0 570.17 170.43 394.06 340.86"/>
    <path class="cls-1" d="M357.32,147.89,238.93,351.12l-21.34,36.62-4.17,7.16a29.74,29.74,0,0,1-4.87-7.16,36.31,36.31,0,0,1-3.68-16.15V159c0-17.13,11.24-31,25.09-31H333.89C344.58,128,353.71,136.25,357.32,147.89Z" transform="translate(-19.27 -91.01)"/>
    <polygon class="cls-1" points="386.84 252.67 330.19 252.67 270.9 198.38 290.95 164.88 386.84 252.67"/>
    <polygon class="cls-1" points="386.84 267.26 386.84 303.89 206.63 303.89 227.03 267.26 386.84 267.26"/>
    <polygon class="cls-1" points="176.12 342.63 91.97 172.2 176.13 1.77 0 172.2 176.12 342.63"/>
  </g>
</svg>