<svg id="OBJECTS" xmlns="http://www.w3.org/2000/svg" viewBox="0 0 629.16 418.25"><defs><style>.cls-1,.cls-15{fill:#f1e858;}.cls-2,.cls-5{fill:#da97c1;}.cls-10,.cls-13,.cls-14,.cls-15,.cls-17,.cls-18,.cls-2,.cls-3,.cls-6{fill-rule:evenodd;}.cls-3,.cls-7{fill:#fff;}.cls-13,.cls-4{fill:#839ad5;}.cls-6,.cls-9{fill:#1b222d;}.cls-14,.cls-8{fill:#6bb68e;}.cls-10,.cls-11{fill:#92d99c;}.cls-12,.cls-17{fill:#e07074;}.cls-16,.cls-18{fill:#6862c7;}</style></defs><title>sistemasweb</title><circle class="cls-1" cx="604.3" cy="92.38" r="51.5" transform="translate(-46.5 219.16) rotate(-24.61)"/><path class="cls-2" d="M614.3,46.81a8.38,8.38,0,1,1-6.08,2.06,8.38,8.38,0,0,1,6.08-2.06ZM583,85.81a9.22,9.22,0,1,1-6.67,2.27A9.23,9.23,0,0,1,583,85.81ZM588.16,90A7.65,7.65,0,1,0,590,95.5,7.63,7.63,0,0,0,588.16,90ZM571.74,69.83a5.34,5.34,0,1,1-3.88,1.32,5.3,5.3,0,0,1,3.88-1.32Zm2.49,2.84a3.75,3.75,0,0,0-2.59-1.29,3.83,3.83,0,0,0-2.75.94,3.78,3.78,0,0,0-1.28,2.59,3.79,3.79,0,1,0,7.56.5,3.79,3.79,0,0,0-.94-2.74Zm40-24.31a6.83,6.83,0,1,0,6.37,7.26A6.81,6.81,0,0,0,614.19,48.36Z" transform="translate(-62.92 -40.88)"/><path class="cls-2" d="M642.61,58a51.38,51.38,0,0,1,12.55,26.29,11,11,0,0,0-7.7,18.18A11,11,0,0,0,654,106a51.54,51.54,0,0,1-46.8,37.75,9.46,9.46,0,0,0,.12-1.07,12.14,12.14,0,0,0-24-3.31,51.58,51.58,0,0,1-22.15-18.92c21.91,2.44,30.36-1.56,38.38-18,8.51-17.39,24.09,3.83,30.88-23.78,3.21-13,8-18.57,12.2-20.76Zm12.77,27.84a9.4,9.4,0,0,0-1,18.7,52.18,52.18,0,0,0,1-18.7Zm-49.81,58a8.27,8.27,0,0,0,.15-1.23,10.57,10.57,0,0,0-21-2.58,51.2,51.2,0,0,0,16.17,3.72C602.49,143.86,604,143.89,605.57,143.85Z" transform="translate(-62.92 -40.88)"/><path class="cls-3" d="M621.19,99.29a4.92,4.92,0,1,1-5.23,4.59A4.92,4.92,0,0,1,621.19,99.29Z" transform="translate(-62.92 -40.88)"/><rect class="cls-4" x="55.88" y="64.84" width="513.39" height="295.23" rx="2.2"/><rect class="cls-5" x="55.88" y="77.57" width="126.83" height="282.5"/><path class="cls-3" d="M162,323.68h65.29a3.9,3.9,0,0,1,3.89,3.89h0a3.9,3.9,0,0,1-3.89,3.89H162a3.91,3.91,0,0,1-3.9-3.89h0A3.91,3.91,0,0,1,162,323.68Z" transform="translate(-62.92 -40.88)"/><path class="cls-3" d="M143.9,267.47a6.46,6.46,0,1,0-6.46-6.46A6.47,6.47,0,0,0,143.9,267.47Z" transform="translate(-62.92 -40.88)"/><path class="cls-3" d="M162,254.56h65.29a3.9,3.9,0,0,1,3.89,3.89h0a3.9,3.9,0,0,1-3.89,3.89H162a3.91,3.91,0,0,1-3.9-3.89h0A3.91,3.91,0,0,1,162,254.56Z" transform="translate(-62.92 -40.88)"/><path class="cls-3" d="M160.57,268h30.9a2.46,2.46,0,0,1,2.45,2.44h0a2.46,2.46,0,0,1-2.45,2.45h-30.9a2.45,2.45,0,0,1-2.45-2.45h0A2.45,2.45,0,0,1,160.57,268Z" transform="translate(-62.92 -40.88)"/><path class="cls-3" d="M214.15,268h-12.6a2.45,2.45,0,0,0-2.45,2.44h0a2.45,2.45,0,0,0,2.45,2.45h12.6a2.45,2.45,0,0,0,2.44-2.45h0A2.45,2.45,0,0,0,214.15,268Z" transform="translate(-62.92 -40.88)"/><path class="cls-3" d="M162,289.12h11.85a3.9,3.9,0,0,1,3.89,3.89h0a3.9,3.9,0,0,1-3.89,3.89H162a3.91,3.91,0,0,1-3.9-3.89h0A3.91,3.91,0,0,1,162,289.12Z" transform="translate(-62.92 -40.88)"/><path class="cls-3" d="M160.57,302.54h46.17a2.45,2.45,0,0,1,2.45,2.44h0a2.45,2.45,0,0,1-2.45,2.45H160.57a2.45,2.45,0,0,1-2.45-2.45h0A2.45,2.45,0,0,1,160.57,302.54Z" transform="translate(-62.92 -40.88)"/><path class="cls-3" d="M183.43,289.12h43.88A3.9,3.9,0,0,1,231.2,293h0a3.9,3.9,0,0,1-3.89,3.89H183.43a3.9,3.9,0,0,1-3.89-3.89h0A3.9,3.9,0,0,1,183.43,289.12Z" transform="translate(-62.92 -40.88)"/><path class="cls-3" d="M143.9,302a6.46,6.46,0,1,0-6.46-6.46A6.47,6.47,0,0,0,143.9,302Z" transform="translate(-62.92 -40.88)"/><path class="cls-3" d="M143.9,336.58a6.45,6.45,0,1,0-6.46-6.45A6.46,6.46,0,0,0,143.9,336.58Z" transform="translate(-62.92 -40.88)"/><path class="cls-3" d="M160.57,337.1h57.06a2.45,2.45,0,0,1,2.45,2.44h0a2.45,2.45,0,0,1-2.45,2.45H160.57a2.45,2.45,0,0,1-2.45-2.45h0A2.45,2.45,0,0,1,160.57,337.1Z" transform="translate(-62.92 -40.88)"/><path class="cls-3" d="M146.82,161.81S144.75,230,148.6,233s66.4,3.26,68.47-1.19,1.48-72-4.44-72.62S148,155.88,146.82,161.81Z" transform="translate(-62.92 -40.88)"/><path class="cls-6" d="M182.21,201a27.72,27.72,0,0,1,26.68,20.18,5.93,5.93,0,0,1-5.71,7.53H161.24a5.93,5.93,0,0,1-5.71-7.53A27.73,27.73,0,0,1,182.21,201Zm0-32.31A14.23,14.23,0,1,1,168,183,14.23,14.23,0,0,1,182.21,168.73Z" transform="translate(-62.92 -40.88)"/><rect class="cls-7" x="442.44" y="64.84" width="126.83" height="236.84"/><rect class="cls-8" x="488.65" y="123.68" width="38.53" height="9.76" rx="4.88"/><rect class="cls-9" x="531.39" y="123.68" width="24.21" height="9.76" rx="4.88"/><rect class="cls-9" x="488.65" y="140.04" width="51.38" height="9.76" rx="4.88"/><rect class="cls-8" x="450" y="122.16" width="29.15" height="29.15" rx="7.9"/><path class="cls-10" d="M556.45,201.93h57.18a4.9,4.9,0,0,1,4.88,4.89h0a4.89,4.89,0,0,1-4.88,4.88H556.45a4.9,4.9,0,0,1-4.88-4.88h0A4.9,4.9,0,0,1,556.45,201.93Z" transform="translate(-62.92 -40.88)"/><rect class="cls-11" x="488.65" y="177.42" width="19.88" height="9.76" rx="4.88"/><rect class="cls-9" x="512.61" y="177.42" width="23.1" height="9.76" rx="4.88"/><rect class="cls-11" x="450" y="159.55" width="29.15" height="29.15" rx="7.9"/><rect class="cls-4" x="488.65" y="198.44" width="58.07" height="9.76" rx="4.88"/><rect class="cls-9" x="488.65" y="214.8" width="41.12" height="9.76" rx="4.88"/><rect class="cls-4" x="450" y="196.93" width="29.15" height="29.15" rx="7.9"/><rect class="cls-12" x="450" y="234.31" width="29.15" height="29.15" rx="7.9"/><rect class="cls-9" x="488.65" y="234.31" width="38.53" height="9.76" rx="4.88"/><rect class="cls-12" x="531.39" y="234.31" width="24.21" height="9.76" rx="4.88"/><rect class="cls-12" x="488.65" y="250.67" width="51.38" height="9.76" rx="4.88"/><rect class="cls-11" x="443.14" y="301.68" width="126.13" height="58.39"/><path class="cls-3" d="M536.66,342.56h3c-6.64,18.7-22.59,19.44-33.62,17.36v-2.86c9.9,1.93,24.26,1.5,30.6-14.5Zm8.26,0h2.69c.57,5.38,2.64,9.88,7.66,11,2.92.64,5.76,1,8.48,1.39,12.67,1.7,22.93,3.07,25.46,25.26.94,8.21,2.5,15.19,4.87,20.76h-3a81.28,81.28,0,0,1-4.62-20.44c-2.29-20-11.59-21.28-23.07-22.82-2.8-.37-5.73-.77-8.69-1.41-6.56-1.44-9.11-7.16-9.76-13.72Zm30.48,0c2.65,5.48,9.14,12.33,25.05,12,10.87-.21,16.71-5.66,19.82-12H617c-2.91,5-8,9.05-16.65,9.22-13.18.27-19.13-4.75-21.81-9.22Zm56.79,15.28v2.83c-11.56-3.35-23.2-3.21-26.21,9.14-3.84,15.72,1.84,25.59,7.33,31.14h-3.78c-5.35-6.3-10-16.52-6.27-31.8,3.5-14.3,16.34-14.78,28.93-11.31Zm0,12.26c-21.81-.88-21.41,20.93,0,22.69v-2.68c-17.59-1.52-17-17.73,0-17.34V370.1ZM569.2,401c-.7-10.1,5.19-26.05-.92-34-8.15-10.66-27.9-6.09-37.13,1-6.47,4.95-16.82,6.44-25.09,6.75v2.78c8.71-.33,19.76-1.94,26.79-7.31,7.93-6.07,26.12-10.76,33.21-1.49,5,6.53-.18,23.4.28,32.34ZM560,401c3.14-7.2,3.7-17.09-15.57-18.78-16.58-1.46-26.56,9.21-32.11,18.78h3.25c5.29-8.5,14.29-17.25,28.62-16,16.32,1.43,15.41,10,12.64,16Z" transform="translate(-62.92 -40.88)"/><rect class="cls-7" x="55.88" y="64.84" width="513.39" height="40.31" rx="3.6"/><circle class="cls-12" cx="77.02" cy="85" r="7.94"/><circle class="cls-1" cx="169.3" cy="125.87" r="7.94" transform="matrix(0.99, -0.16, 0.16, 0.99, -80.89, -12.13)"/><circle class="cls-8" cx="135.74" cy="85" r="7.94"/><path class="cls-6" d="M512.68,341.16H624.86a6,6,0,0,0,5.93-5.93V153.36a5.94,5.94,0,0,0-5.93-5.93H512.68a5.94,5.94,0,0,0-5.93,5.93V335.23a6,6,0,0,0,5.93,5.93Zm120.91,0v61.19H123.32a5.94,5.94,0,0,1-5.93-5.93q0-125.9,0-251.79h0V110.24a5.94,5.94,0,0,1,5.93-5.92H627.66a5.94,5.94,0,0,1,5.93,5.92V341.16ZM504,399.55V153.36a5.94,5.94,0,0,0-5.93-5.93H253a5.94,5.94,0,0,0-5.93,5.93V393.62a5.94,5.94,0,0,0,5.93,5.93H504Zm120.91,0a6,6,0,0,0,5.91-5.51V349.46a5.94,5.94,0,0,0-5.91-5.5H512.7a5.94,5.94,0,0,0-5.93,5.93v43.73a5.94,5.94,0,0,0,5.93,5.93Zm-380.63-5.93V153.36a5.94,5.94,0,0,0-5.93-5.93H126.12a5.94,5.94,0,0,0-5.93,5.93V393.62a6,6,0,0,0,5.93,5.93H238.3a6,6,0,0,0,5.93-5.93Zm-118.11-249H624.86a5.94,5.94,0,0,0,5.93-5.93V113.05a5.94,5.94,0,0,0-5.93-5.93H126.12a5.94,5.94,0,0,0-5.93,5.93V138.7A5.94,5.94,0,0,0,126.12,144.63Z" transform="translate(-62.92 -40.88)"/><rect class="cls-7" x="194.99" y="210.05" width="235.16" height="50.88" rx="3.61"/><path class="cls-13" d="M282.39,294.42a18.05,18.05,0,1,0-18.06-18.05A18.09,18.09,0,0,0,282.39,294.42Z" transform="translate(-62.92 -40.88)"/><rect class="cls-4" x="246.33" y="217.44" width="66.94" height="9.76" rx="4.88"/><rect class="cls-4" x="317.61" y="217.44" width="27.67" height="9.76" rx="4.88"/><rect class="cls-4" x="246.33" y="234.73" width="45.34" height="9.76" rx="4.88"/><rect class="cls-9" x="194.99" y="119.39" width="235.16" height="84.97" rx="6.03"/><path class="cls-14" d="M451.86,180.76a6.89,6.89,0,1,0-6.89-6.89A6.9,6.9,0,0,0,451.86,180.76Z" transform="translate(-62.92 -40.88)"/><path class="cls-3" d="M438.35,150.06a4.71,4.71,0,0,1,4.71,4.71,4.81,4.81,0,0,1-.31,1.71L473,171.74a4.71,4.71,0,1,1,0,5l-31.15,15.42a2.57,2.57,0,0,1,.08.62,2.36,2.36,0,1,1-2.88-2.3l-.95-31a4.72,4.72,0,0,1,.31-9.42Zm-9.71,25.6a2.34,2.34,0,1,1-2.33,2.34,2.33,2.33,0,0,1,2.33-2.34Zm36.2-20.23a1.41,1.41,0,1,0,1.41,1.41,1.41,1.41,0,0,0-1.41-1.41Zm7.7,20.51a4.62,4.62,0,0,1-.3-1.67,4.81,4.81,0,0,1,.31-1.71L442.33,157.3a4.72,4.72,0,0,1-3.38,2.15l.94,31a2.34,2.34,0,0,1,1.49.89Z" transform="translate(-62.92 -40.88)"/><path class="cls-13" d="M480.82,201.49a5.24,5.24,0,1,0-5.24-5.23A5.24,5.24,0,0,0,480.82,201.49Z" transform="translate(-62.92 -40.88)"/><path class="cls-3" d="M437.34,221.49a21.85,21.85,0,1,1,33.36,23.75H446.19A21.86,21.86,0,0,1,437.34,221.49Z" transform="translate(-62.92 -40.88)"/><path class="cls-13" d="M476.9,215.44a21.87,21.87,0,0,1-6.2,29.8H446.19c-.48-.32-.93-.66-1.37-1a7.76,7.76,0,0,0,3.72-3.55c2.35-4.56,15.16-1.63,14.45-8.43s.87-5.47,8.84-10C475.52,220.13,476.69,217.58,476.9,215.44Z" transform="translate(-62.92 -40.88)"/><path class="cls-13" d="M460.22,214.84a2,2,0,1,1-2,2,2,2,0,0,1,2-2ZM453,206l.69-.17a4.16,4.16,0,0,0,3.88,2.64,4.16,4.16,0,0,0,4-2.93l.7.11a5,5,0,0,1-1.24,2.09,4.86,4.86,0,0,1-6.89,0A4.91,4.91,0,0,1,453,206Zm25.68,29.37c-.09.22-.18.44-.28.66a4.1,4.1,0,1,0-4.66,6.73l-.52.49a3.86,3.86,0,0,1-.66-.55,4.79,4.79,0,0,1,6.12-7.33Zm-8.14-17a4.88,4.88,0,1,1-3.44,1.43,4.86,4.86,0,0,1,3.44-1.43Zm2.95,1.92a4.18,4.18,0,1,0,1.22,3,4.19,4.19,0,0,0-1.22-3Zm-24.37-1.85a4.8,4.8,0,1,1-3.39,1.41,4.75,4.75,0,0,1,3.39-1.41Zm2.9,1.9a4.1,4.1,0,1,0,1.2,2.9,4.09,4.09,0,0,0-1.2-2.9Zm1,15.89a3.55,3.55,0,1,1-2.5,1,3.54,3.54,0,0,1,2.5-1Zm2,1.53a2.84,2.84,0,0,0-4,4,2.84,2.84,0,0,0,4-4Z" transform="translate(-62.92 -40.88)"/><path class="cls-3" d="M478.7,235.35h0l-.05.14h0c-.05.11-.09.23-.14.34h0l0,.06h0a4.1,4.1,0,1,0-4.66,6.73h-.11l-.16.16h0l-.2.19h0a3.86,3.86,0,0,1-.66-.55,4.79,4.79,0,0,1,6.12-7.33Zm-29.24,4.22a7.5,7.5,0,0,1,.78-.51,3.08,3.08,0,0,0-.08.68,2.83,2.83,0,0,0,.83,2,2.84,2.84,0,0,0,4-4l-.05,0,.81-.15a3.54,3.54,0,1,1-6.3,2.21v-.17Zm16.65-14.37.63-.32a4,4,0,0,0,.87,1.28,4.17,4.17,0,0,0,6.33-5.39c.18-.16.36-.32.52-.48a4.87,4.87,0,0,1-7.34,6.37A5.09,5.09,0,0,1,466.11,225.2Z" transform="translate(-62.92 -40.88)"/><path class="cls-3" d="M404.32,218.82A16.3,16.3,0,1,0,388,202.52,16.33,16.33,0,0,0,404.32,218.82Z" transform="translate(-62.92 -40.88)"/><path class="cls-13" d="M406.53,187.92a2.64,2.64,0,0,1,1.88.77,2.66,2.66,0,0,1,0,3.76,2.66,2.66,0,1,1-1.88-4.53Zm-9.07,13a2.91,2.91,0,0,1,2.06.86,2.92,2.92,0,0,1,0,4.12,2.9,2.9,0,0,1-2.06.85,2.87,2.87,0,0,1-2.06-.85,2.9,2.9,0,0,1,0-4.12,2.88,2.88,0,0,1,2.06-.86Zm1.71,1.21A2.42,2.42,0,0,0,395,203.8a2.41,2.41,0,0,0,2.42,2.42,2.42,2.42,0,0,0,1.71-4.13Zm-5.6-6a1.69,1.69,0,0,1,1.19,2.89,1.7,1.7,0,0,1-2.39,0,1.69,1.69,0,0,1,1.2-2.89Zm.84.84a1.19,1.19,0,0,0-.84-.35,1.22,1.22,0,0,0-.85.35,1.2,1.2,0,1,0,1.69,0Zm12.12-8.5A2.15,2.15,0,0,0,405,189a2.15,2.15,0,0,0,0,3.06,2.16,2.16,0,1,0,1.52-3.69Z" transform="translate(-62.92 -40.88)"/><path class="cls-13" d="M415.71,190.86a16.3,16.3,0,0,1,4.51,8,3.47,3.47,0,0,0-2.06,5.9,3.52,3.52,0,0,0,2.13,1,16.32,16.32,0,0,1-14,12.89c0-.11,0-.22,0-.34a3.85,3.85,0,0,0-6.56-2.72,3.87,3.87,0,0,0-1.08,2.17,16.28,16.28,0,0,1-7.39-5.52c7,.32,9.55-1.12,11.75-6.47,2.33-5.67,7.69.71,9.26-8.15.75-4.19,2.15-6,3.43-6.81Zm4.61,8.53a3,3,0,0,0,.06,5.93,16.47,16.47,0,0,0-.06-5.93Zm-14.54,19.36a2.47,2.47,0,0,0,0-.39,3.35,3.35,0,0,0-5.72-2.37,3.4,3.4,0,0,0-1,2,16.18,16.18,0,0,0,5.19.84A14.13,14.13,0,0,0,405.78,218.75Z" transform="translate(-62.92 -40.88)"/><path class="cls-3" d="M409.79,207.47a1.56,1.56,0,1,0-1.55-1.56A1.56,1.56,0,0,0,409.79,207.47Z" transform="translate(-62.92 -40.88)"/><circle class="cls-7" cx="356.26" cy="191.6" r="1.26"/><path class="cls-3" d="M392.65,233.89a.67.67,0,0,0,.66-.67.67.67,0,0,0-1.33,0A.67.67,0,0,0,392.65,233.89Z" transform="translate(-62.92 -40.88)"/><circle class="cls-7" cx="325.95" cy="130.17" r="0.89"/><path class="cls-3" d="M275.73,172.93H304.5a4.89,4.89,0,0,1,4.88,4.88h0a4.89,4.89,0,0,1-4.88,4.88H275.73a4.89,4.89,0,0,1-4.88-4.88h0A4.89,4.89,0,0,1,275.73,172.93Z" transform="translate(-62.92 -40.88)"/><rect class="cls-1" x="207.93" y="148.41" width="51.38" height="9.76" rx="4.88"/><path class="cls-3" d="M257.91,312.85H375.49v87.29a13,13,0,0,1-13,13H257.91Z" transform="translate(-62.92 -40.88)"/><path class="cls-13" d="M270.68,379.08v20.58s-1.57,2,1.67,1.93,15.41-.83,15.41-.83,1.05-.6.8-3.56.12-16.54-.43-17.48-2.53-1-3.71-.93S270.68,379.08,270.68,379.08Z" transform="translate(-62.92 -40.88)"/><path class="cls-10" d="M325.94,355.54v20.58s-1.57,1.9,1.67,2,15.41,0,15.41,0,1.05-.53.8-3.51.12-16.53-.43-17.51-2.53-1.1-3.71-1.13S325.94,355.54,325.94,355.54Z" transform="translate(-62.92 -40.88)"/><path class="cls-13" d="M270.23,312.85h.7v41.47a1.19,1.19,0,0,0,1.19,1.18H287.5a1.18,1.18,0,0,0,1.18-1.18V312.85h.7v41.47a1.18,1.18,0,0,0,1.19,1.18h15.37a1.19,1.19,0,0,0,1.19-1.18V312.85h.7v41.47A1.18,1.18,0,0,0,309,355.5h15.38a1.18,1.18,0,0,0,1.18-1.18V312.85h.71v41.47a1.18,1.18,0,0,0,1.18,1.18h15.38a1.18,1.18,0,0,0,1.18-1.18V312.85h.7v41.47a1.18,1.18,0,0,0,1.19,1.18h15.37a1.18,1.18,0,0,0,1.19-1.18V312.85h.7v41.47a1.18,1.18,0,0,0,1.18,1.18h11.14v.7H364.35a1.18,1.18,0,0,0-1.18,1.19v20a1.19,1.19,0,0,0,1.18,1.19h11.14v.7H364.35a1.18,1.18,0,0,0-1.18,1.18v17.66c0,.5,0,1.16-.06,1.92l0,.33a1.18,1.18,0,0,0,1.18,1.3H375.4c0,.24-.07.47-.11.7H363.67a1.19,1.19,0,0,0-1.14.85c-1.08,3.62-4,7.89-12,9.86a.92.92,0,0,1-.29,0h-3.77c9.74-1.25,13.55-5.38,15-9.12a1.19,1.19,0,0,0-1.1-1.63h-14.5a1.19,1.19,0,0,0-1.19,1.19v9.56H344v-9.56a1.18,1.18,0,0,0-1.18-1.19H327.46a1.18,1.18,0,0,0-1.18,1.19v9.56h-.71v-9.56a1.18,1.18,0,0,0-1.18-1.19H309a1.18,1.18,0,0,0-1.18,1.19v9.56h-.7v-9.56a1.19,1.19,0,0,0-1.19-1.19H290.57a1.19,1.19,0,0,0-1.19,1.19v9.56h-.7v-9.56a1.18,1.18,0,0,0-1.18-1.19H272.12a1.19,1.19,0,0,0-1.19,1.19v9.56h-.7v-9.56a1.18,1.18,0,0,0-1.18-1.19H257.91v-.7h11.14a1.18,1.18,0,0,0,1.18-1.18v-20a1.18,1.18,0,0,0-1.18-1.18H257.91v-.7h11.14a1.19,1.19,0,0,0,1.18-1.19v-20a1.18,1.18,0,0,0-1.18-1.19H257.91v-.7h11.14a1.18,1.18,0,0,0,1.18-1.18V312.85Zm.7,44.54v20a1.2,1.2,0,0,0,1.19,1.19H287.5a1.19,1.19,0,0,0,1.18-1.19v-20a1.18,1.18,0,0,0-1.18-1.19H272.12a1.19,1.19,0,0,0-1.19,1.19Zm0,23.09v20a1.19,1.19,0,0,0,1.19,1.18H287.5a1.18,1.18,0,0,0,1.18-1.18v-20a1.18,1.18,0,0,0-1.18-1.18H272.12a1.19,1.19,0,0,0-1.19,1.18Zm90.35-24.28H345.91a1.19,1.19,0,0,0-1.19,1.19v20a1.19,1.19,0,0,0,1.19,1.19h15.37a1.19,1.19,0,0,0,1.19-1.19v-20a1.19,1.19,0,0,0-1.19-1.19Zm-18.44,0H327.46a1.18,1.18,0,0,0-1.18,1.19v20a1.19,1.19,0,0,0,1.18,1.19h15.38a1.19,1.19,0,0,0,1.18-1.19v-20a1.18,1.18,0,0,0-1.18-1.19Zm-18.45,0H309a1.18,1.18,0,0,0-1.18,1.19v20A1.19,1.19,0,0,0,309,378.6h15.38a1.19,1.19,0,0,0,1.18-1.19v-20a1.18,1.18,0,0,0-1.18-1.19Zm-18.45,0H290.57a1.19,1.19,0,0,0-1.19,1.19v20a1.19,1.19,0,0,0,1.19,1.19h15.37a1.2,1.2,0,0,0,1.19-1.19v-20a1.19,1.19,0,0,0-1.19-1.19Zm55.34,23.1H345.91a1.18,1.18,0,0,0-1.19,1.18v20a1.18,1.18,0,0,0,1.19,1.18h15.26a1.17,1.17,0,0,0,1.18-1c0-.22,0-.44.06-.64.06-.76.06-1.4.06-1.87V380.48a1.18,1.18,0,0,0-1.19-1.18Zm-18.44,0H327.46a1.18,1.18,0,0,0-1.18,1.18v20a1.18,1.18,0,0,0,1.18,1.18h15.38a1.18,1.18,0,0,0,1.18-1.18v-20a1.18,1.18,0,0,0-1.18-1.18Zm-18.45,0H309a1.18,1.18,0,0,0-1.18,1.18v20a1.18,1.18,0,0,0,1.18,1.18h15.38a1.18,1.18,0,0,0,1.18-1.18v-20a1.18,1.18,0,0,0-1.18-1.18Zm-18.45,0H290.57a1.18,1.18,0,0,0-1.19,1.18v20a1.18,1.18,0,0,0,1.19,1.18h15.37a1.19,1.19,0,0,0,1.19-1.18v-20A1.19,1.19,0,0,0,305.94,379.3Z" transform="translate(-62.92 -40.88)"/><path class="cls-6" d="M253.22,413.14a12.85,12.85,0,1,1,0-25.69H362.65a12.85,12.85,0,1,0,0,25.69Z" transform="translate(-62.92 -40.88)"/><rect class="cls-11" x="194.99" y="271.97" width="117.58" height="22.23"/><path class="cls-3" d="M264.93,316.29h12.78a2.15,2.15,0,0,1,1.5.62h0a2.11,2.11,0,0,1,.62,1.5v11.11a2.11,2.11,0,0,1-.62,1.5h0a2.11,2.11,0,0,1-1.5.62H264.93a2.07,2.07,0,0,1-1.49-.62h0a2.15,2.15,0,0,1-.62-1.5V318.41a2.15,2.15,0,0,1,.62-1.5h0a2.11,2.11,0,0,1,1.49-.62Zm12.78,1.4H264.93a.72.72,0,0,0-.51.21h0a.72.72,0,0,0-.21.51v11.11a.72.72,0,0,0,.21.51h0a.72.72,0,0,0,.51.21h12.78a.72.72,0,0,0,.51-.21h0a.72.72,0,0,0,.21-.51V318.41a.72.72,0,0,0-.21-.51h0A.72.72,0,0,0,277.71,317.69Z" transform="translate(-62.92 -40.88)"/><rect class="cls-9" x="225.03" y="278.35" width="57.52" height="3.75" rx="1.87"/><rect class="cls-9" x="225.03" y="286.12" width="34.91" height="3.75" rx="1.87"/><path class="cls-6" d="M369.71,333h2.52a1.33,1.33,0,0,0,1.33-1.33v-2.52a1.33,1.33,0,0,0-2.27-.94l-2.52,2.52a1.33,1.33,0,0,0,.94,2.27Z" transform="translate(-62.92 -40.88)"/><path class="cls-10" d="M362.48,387.45c.16,0,2.08.51,2.37,4.06H353.27A12.84,12.84,0,0,1,362.48,387.45Z" transform="translate(-62.92 -40.88)"/><path class="cls-3" d="M246.57,429.9a1,1,0,1,1,0-1.93H368.39a1,1,0,1,1,0,1.93Z" transform="translate(-62.92 -40.88)"/><path class="cls-15" d="M334.35,436.41l3.27-3.28a2.46,2.46,0,0,1,3.46,0l3.28,3.28a2.45,2.45,0,0,1-1.73,4.17h-6.56a2.44,2.44,0,0,1-1.72-4.17Z" transform="translate(-62.92 -40.88)"/><path class="cls-15" d="M493.07,321.9v85.78H384.59V321.9a2.37,2.37,0,0,1,2.37-2.37H441.1l1-5.69a1.18,1.18,0,0,1,1.17-1h35a1.18,1.18,0,0,1,1.17,1l1,5.69H490.7A2.38,2.38,0,0,1,493.07,321.9Z" transform="translate(-62.92 -40.88)"/><path class="cls-6" d="M451.57,365.39v21.12H426.08V365.39a1.18,1.18,0,0,0-1.18-1.18h-6.08L438,345a1.2,1.2,0,0,1,1.68,0l19.17,19.17h-6.08A1.19,1.19,0,0,0,451.57,365.39Z" transform="translate(-62.92 -40.88)"/><path class="cls-3" d="M520.51,90.46a3.71,3.71,0,1,0-3.7-3.7A3.71,3.71,0,0,0,520.51,90.46Z" transform="translate(-62.92 -40.88)"/><path class="cls-3" d="M538.85,54.15a1.67,1.67,0,1,0-1.67-1.67A1.67,1.67,0,0,0,538.85,54.15Z" transform="translate(-62.92 -40.88)"/><path class="cls-3" d="M670.2,129a1.86,1.86,0,1,0-1.85-1.86A1.86,1.86,0,0,0,670.2,129Z" transform="translate(-62.92 -40.88)"/><path class="cls-3" d="M664.09,255.71a1.3,1.3,0,1,0-1.3-1.29A1.29,1.29,0,0,0,664.09,255.71Z" transform="translate(-62.92 -40.88)"/><path class="cls-3" d="M67.36,253.86a4.45,4.45,0,1,0-4.44-4.44A4.46,4.46,0,0,0,67.36,253.86Z" transform="translate(-62.92 -40.88)"/><path class="cls-3" d="M90.34,245.71a2.23,2.23,0,1,0-2.23-2.22A2.23,2.23,0,0,0,90.34,245.71Z" transform="translate(-62.92 -40.88)"/><circle class="cls-7" cx="449.3" cy="381.72" r="3.71"/><path class="cls-3" d="M533.15,433A1.18,1.18,0,1,0,532,431.8,1.18,1.18,0,0,0,533.15,433Z" transform="translate(-62.92 -40.88)"/><path class="cls-3" d="M640.67,416.17a1,1,0,1,0-1-1A1,1,0,0,0,640.67,416.17Z" transform="translate(-62.92 -40.88)"/><path class="cls-3" d="M145.16,79a2,2,0,1,0-2-2A2,2,0,0,0,145.16,79Z" transform="translate(-62.92 -40.88)"/><path class="cls-6" d="M80,180.26h61l0,0h0l0,0h0l0,0h0l0,0h0l0,0h0l0,0h0l0,0h0l0,0h0l0,0h0l0,0h0l0,0h0l0,0h0l0,0h0l0,0,0,0h0l0,0h0l0,0,0,0h0l0,0v0l0,0h0v0h0l0,0h0l0,0h0l0,0h0l0,.08v0h0a.75.75,0,0,0,.07.12v0l0,0h0v0h0v0h0l0,0h0v0h0l0,0h0v0h0v.14h0v0h0v0h0a1.33,1.33,0,0,1,0,.28V219h0v0h0v.07h0v.14h0v0h0v0h0v0h0v.09h0l0,0h0v0h0v.05h0l0,0h0v0h0l0,0h0v0l0,0h0l0,0h0v0h0l0,0h0l0,0,0,0h0l0,0h0v0l0,0h0l0,0h0l0,0h0l0,0v0h0l0,0,0,0h0l0,0h0l0,0h0l0,0h0l0,0h0l0,0h0l0,0h0l0,0h0l0,0h-.05l0,0h0l0,0h0l0,0h-.07l0,0h0l0,0H141l0,0h-.07a2,2,0,0,1-.64.11H80a1.9,1.9,0,0,1-.75-.15l0,0h-.13l0,0h0l0,0H79l0,0,0,0h0l0,0h0l0,0h0l0,0h0l0,0h0l0,0h0l0,0,0,0,0,0h0l0,0h0l0,0h0v0h0l0,0h0l0,0h0l0,0v0h0l0,0h0l-.08-.11h0v0h0l0,0v0h0l0,0h0l0,0v0h0v0h0l0,0h0v-.05h0v0h0l0,0h0v0h0v0h0v0h0v-.1h0v0h0v0h0v0h0v0h0v-.1h0V182.17a1.32,1.32,0,0,1,0-.28h0v-.07h0v-.07h0v-.07h0l0,0v0h0l0-.08h0v0h0v0h0v-.13h0v0h0v0h0l0,0h0l0,0h0l0,0h0l0,0h0l0,0,0-.06h0l0,0v0h0v0l0,0h0l.06-.06,0,0h0l0,0h0l0,0h0l0,0,.06,0h0l0,0h0l0,0h0l0,0h0l0,0h0l0,0h0l0,0h0l0,0h0l0,0h.41l.13,0H80Z" transform="translate(-62.92 -40.88)"/><path class="cls-15" d="M73.56,176.12l60-5.41a1.94,1.94,0,0,1,2.09,1.74L138.9,209a1.93,1.93,0,0,1-1.74,2.09l-60,5.4a1.93,1.93,0,0,1-2.08-1.74L71.83,178.2A1.91,1.91,0,0,1,73.56,176.12Z" transform="translate(-62.92 -40.88)"/><path class="cls-6" d="M73.56,176.12l28.67,18.45a5.16,5.16,0,0,0,6.39-.58l24.9-23.28h0a1.93,1.93,0,0,1,2,1.46L124.8,182.23a5.19,5.19,0,0,0-.57,7l14.6,19,.07.79a1.91,1.91,0,0,1-1.11,1.89L123,191.7a5.22,5.22,0,0,0-7.7-.63l-6.44,6a5.17,5.17,0,0,1-6.39.58l-9.13-5.88a5.21,5.21,0,0,0-7.64,2.38l-9.27,22.25a1.92,1.92,0,0,1-1.35-1.66L75,213.53l9.35-22.44a5.18,5.18,0,0,0-2-6.39l-10.55-6.79A1.92,1.92,0,0,1,73.56,176.12Z" transform="translate(-62.92 -40.88)"/><path class="cls-3" d="M91.48,165.34s-13.67-10.69-8.59-16.48,9.43,4.12,11,9.66S94.48,167.26,91.48,165.34Z" transform="translate(-62.92 -40.88)"/><path class="cls-3" d="M97.92,159.38s-1.66-11,4.47-10.21.53,8.87-1,11.07S97.94,160.59,97.92,159.38Z" transform="translate(-62.92 -40.88)"/><path class="cls-6" d="M167,305.32h47.82a1.59,1.59,0,0,1,1.59,1.59v142a1.6,1.6,0,0,1-1.59,1.59H75.49a1.6,1.6,0,0,1-1.59-1.59V305.32Z" transform="translate(-62.92 -40.88)"/><rect class="cls-7" x="80.06" y="282.11" width="34.79" height="5.49" rx="2.75"/><rect class="cls-7" x="91.63" y="331.54" width="30.96" height="8.74" rx="4.37"/><rect class="cls-16" x="47.35" y="246.17" width="46.6" height="18.31" rx="1.75"/><path class="cls-6" d="M110.42,296.67H204.7a1.58,1.58,0,0,1,1.58,1.58v142a1.58,1.58,0,0,1-1.58,1.58H65.4a1.59,1.59,0,0,1-1.59-1.58V288.93a1.76,1.76,0,0,1,1.75-1.75h43.11a1.76,1.76,0,0,1,1.75,1.75Z" transform="translate(-62.92 -40.88)"/><rect class="cls-11" x="25.31" y="285.36" width="27.95" height="5.33" rx="2.66"/><rect class="cls-16" x="55.76" y="285.36" width="19.22" height="5.33" rx="2.66"/><rect class="cls-16" x="77.48" y="285.36" width="26.38" height="5.33" rx="2.66"/><rect class="cls-12" x="14.82" y="273.05" width="26.38" height="5.33" rx="2.66"/><path class="cls-3" d="M175,325.71l-3.59,6.21-.47-.27,3.58-6.22.48.28Zm3,0-.47-.28-3.59,6.22.48.27Z" transform="translate(-62.92 -40.88)"/><rect class="cls-7" x="118.84" y="285.36" width="11.33" height="5.33" rx="2.66"/><rect class="cls-16" x="25.31" y="296.84" width="5.33" height="5.33" rx="2.66"/><polygon class="cls-10" points="37.54 296.85 40.2 302.17 34.88 302.17 37.54 296.85"/><rect class="cls-16" x="44.95" y="296.84" width="17.24" height="5.33" rx="2.66"/><rect class="cls-11" x="25.31" y="309.66" width="42.63" height="5.33" rx="2.66"/><rect class="cls-11" x="70.66" y="309.66" width="19.22" height="5.33" rx="2.66"/><rect class="cls-11" x="14.82" y="322.15" width="26.38" height="5.33" rx="2.66"/><polygon class="cls-3" points="29.35 340.75 26.98 340.75 26.98 347.25 29.35 347.25 29.35 348.83 25.41 348.83 25.41 339.18 29.35 339.18 29.35 340.75"/><rect class="cls-16" x="32.25" y="341.34" width="26.38" height="5.33" rx="2.66"/><rect class="cls-12" x="61.53" y="341.34" width="13.19" height="5.33" rx="2.66"/><polygon class="cls-3" points="77.62 339.18 81.57 339.18 81.57 348.83 77.62 348.83 77.62 347.25 80 347.25 80 340.75 77.62 340.75 77.62 339.18"/><rect class="cls-11" x="44.55" y="359.19" width="5.33" height="5.33" rx="2.66"/><polygon class="cls-17" points="37.54 359.19 40.2 364.52 34.88 364.52 37.54 359.19"/><polygon class="cls-10" points="60.04 360.06 58.24 361.85 60.04 363.65 58.93 364.76 57.13 362.96 55.34 364.76 54.23 363.65 56.02 361.85 54.23 360.06 55.34 358.95 57.13 360.74 58.93 358.95 60.04 360.06"/><path class="cls-3" d="M141.08,399.76,137.49,406l-.47-.27,3.58-6.21.48.27Zm3,0-.47-.27L140,405.7l.48.27Z" transform="translate(-62.92 -40.88)"/><rect class="cls-7" x="83.2" y="359.19" width="16.9" height="5.33" rx="2.66"/><rect class="cls-7" x="104.67" y="359.19" width="11.57" height="5.33" rx="2.66"/><rect class="cls-12" x="14.82" y="373.59" width="17.95" height="5.33" rx="2.66"/><path class="cls-10" d="M111.12,296H204.7a2.27,2.27,0,0,1,2.28,2.28v142a2.27,2.27,0,0,1-2.28,2.28H65.4a2.29,2.29,0,0,1-2.29-2.28V288.93a2.46,2.46,0,0,1,2.45-2.45h43.11a2.48,2.48,0,0,1,1.73.72h0a2.48,2.48,0,0,1,.72,1.73v7Zm93.58,1.4h-95v-8.44a1.06,1.06,0,0,0-1-1.05H65.56a1.06,1.06,0,0,0-1,1.05V440.22a.89.89,0,0,0,.89.88H204.7a.89.89,0,0,0,.88-.88v-142a.89.89,0,0,0-.88-.88Z" transform="translate(-62.92 -40.88)"/><circle class="cls-11" cx="176.41" cy="441.43" r="17.69" transform="translate(-131.35 -6.92) rotate(-9.22)"/><path class="cls-6" d="M176.41,457.68a16.25,16.25,0,1,0-16.25-16.25A16.28,16.28,0,0,0,176.41,457.68Z" transform="translate(-62.92 -40.88)"/><path class="cls-18" d="M169.8,449.88l-3.25,1.88.68,1.18,3.59-2.08a.77.77,0,0,1,.9.09,7,7,0,0,0,4.69,1.8h0a7,7,0,0,0,4.7-1.8.75.75,0,0,1,.89-.09l3.6,2.08.68-1.18L183,449.88a.78.78,0,0,1-.3-1,7,7,0,0,0,.73-2.41.76.76,0,0,1,.76-.69h4.1V444.4h-4.05a.77.77,0,0,1-.77-.78V442a7.31,7.31,0,0,0-.13-1.33.77.77,0,0,1,.37-.82l2.49-1.43-.68-1.18-2.12,1.23a.78.78,0,0,1-1-.26,7.1,7.1,0,0,0-6-3.29h0a7.1,7.1,0,0,0-6,3.29.77.77,0,0,1-1,.26l-2.13-1.23-.67,1.18,2.48,1.43a.76.76,0,0,1,.37.82,7.31,7.31,0,0,0-.13,1.33v1.61a.77.77,0,0,1-.77.78h-4v1.36h4.09a.77.77,0,0,1,.77.69,6.81,6.81,0,0,0,.72,2.41A.77.77,0,0,1,169.8,449.88Z" transform="translate(-62.92 -40.88)"/><path class="cls-6" d="M176,452.73l.45,0h0l.46,0V440.5H176Z" transform="translate(-62.92 -40.88)"/><path class="cls-18" d="M176.41,439.17a4.62,4.62,0,1,0-4.62-4.62A4.63,4.63,0,0,0,176.41,439.17Z" transform="translate(-62.92 -40.88)"/><path class="cls-10" d="M180.66,436.36a4.62,4.62,0,0,1-8.5,0,7.08,7.08,0,0,1,4.25-1.43h0A7.06,7.06,0,0,1,180.66,436.36Z" transform="translate(-62.92 -40.88)"/><path class="cls-17" d="M190.46,425.91a2.7,2.7,0,1,0-2.7-2.7A2.71,2.71,0,0,0,190.46,425.91Z" transform="translate(-62.92 -40.88)"/><path class="cls-6" d="M632.19,158.65V213l-.31-.22-.06,0-.59-.45-.06,0c-.2-.15-.39-.31-.58-.47l-.05,0c-.4-.33-.8-.67-1.18-1l0,0c-.2-.17-.39-.34-.57-.52l0,0c-.38-.35-.75-.72-1.11-1.09l0,0c-.18-.19-.36-.37-.53-.56l0,0-.52-.59h0c-.17-.19-.34-.38-.5-.58l0,0-.46-.57,0-.06L625,206h0l-.45-.61,0,0c-.14-.19-.28-.39-.41-.59l-.07-.1-.39-.58h0a33.45,33.45,0,0,1,8.55-45.45Zm-5.66,49.25-.5-.58C626.19,207.52,626.36,207.71,626.53,207.9Z" transform="translate(-62.92 -40.88)"/><path class="cls-15" d="M650.05,142.2a33.45,33.45,0,1,1-35.56,31.2A33.46,33.46,0,0,1,650.05,142.2Z" transform="translate(-62.92 -40.88)"/><path class="cls-2" d="M654.36,146a5.46,5.46,0,1,1-3.94,1.34,5.43,5.43,0,0,1,3.94-1.34Zm-23.59,22.75a8,8,0,1,1-5.79,2,7.93,7.93,0,0,1,5.79-2Zm4.47,3.59a6.65,6.65,0,0,0-4.56-2.24,6.63,6.63,0,0,0-5.42,11,6.65,6.65,0,0,0,4.56,2.24,6.64,6.64,0,0,0,7-6.18,6.64,6.64,0,0,0-1.63-4.81Zm6.39-27.69a3.46,3.46,0,0,1,3.24,3.69,3.41,3.41,0,0,1-1.17,2.38,3.47,3.47,0,0,1-2.52.86,3.5,3.5,0,0,1-2.38-1.18,3.47,3.47,0,0,1,2.83-5.75Zm1.63,1.84a2.46,2.46,0,0,0-3.47-.22,2.37,2.37,0,0,0-.83,1.68,2.46,2.46,0,1,0,4.9.32,2.51,2.51,0,0,0-.6-1.78Zm11,.52a4.44,4.44,0,1,0,4.13,4.71A4.43,4.43,0,0,0,654.3,147Z" transform="translate(-62.92 -40.88)"/><path class="cls-2" d="M672.76,153.23a33.5,33.5,0,0,1,8.15,17.08l.14,1a33.61,33.61,0,0,1,.2,6.44,34.48,34.48,0,0,1-.87,5.71l-.25,1A33.49,33.49,0,0,1,649.73,209c0-.23.06-.46.08-.7a7.88,7.88,0,0,0-15.58-2.15,33.55,33.55,0,0,1-14.39-12.29c14.23,1.59,19.72-1,24.93-11.67,5.53-11.3,15.65,2.49,20.06-15.45,2.08-8.48,5.21-12.06,7.93-13.49ZM648.7,209a7.17,7.17,0,0,0,.1-.81,6.87,6.87,0,0,0-13.61-1.67,33.76,33.76,0,0,0,10.5,2.42C646.7,209,647.7,209,648.7,209Z" transform="translate(-62.92 -40.88)"/><path class="cls-3" d="M658.84,180.07a3.19,3.19,0,1,1-3.39,3A3.21,3.21,0,0,1,658.84,180.07Z" transform="translate(-62.92 -40.88)"/><path class="cls-17" d="M402.09,438.58h14.6a20.87,20.87,0,0,0,10.51-2.71h0a20.82,20.82,0,0,0,7.62-7.74l17.53-30.36A26.46,26.46,0,0,1,462,388h0a26.38,26.38,0,0,1,13.29-3.48h37.17a21,21,0,0,0,10.5-2.71h0a20.9,20.9,0,0,0,7.62-7.74l25-43.26a26.41,26.41,0,0,1,9.65-9.78h0a26.38,26.38,0,0,1,13.29-3.48h80.06a20.8,20.8,0,0,0,10.5-2.71h0a20.9,20.9,0,0,0,7.62-7.74h0l2.48-4.29a7.11,7.11,0,0,1-1.46-4.34,7.19,7.19,0,1,1,7.18,7.19,6.54,6.54,0,0,1-.89-.06l-2.48,4.28v0a26.38,26.38,0,0,1-9.65,9.77h0a26.38,26.38,0,0,1-13.29,3.48H578.51a20.81,20.81,0,0,0-10.5,2.72h0a20.9,20.9,0,0,0-7.62,7.74l-25,43.26a26.41,26.41,0,0,1-9.65,9.78h0a26.38,26.38,0,0,1-13.29,3.48H475.29a20.86,20.86,0,0,0-10.5,2.71h0a20.9,20.9,0,0,0-7.62,7.74l-17.52,30.35A26.38,26.38,0,0,1,430,440.7h0a26.38,26.38,0,0,1-13.29,3.49H402a7.18,7.18,0,1,1,.13-5.61Z" transform="translate(-62.92 -40.88)"/><polygon class="cls-3" points="601.12 344.91 601.12 306.88 596.3 311.69 594.14 309.53 602.65 301.02 611.16 309.53 608.99 311.69 604.18 306.88 604.18 344.91 601.12 344.91"/><path class="cls-7" d="M192.94,26h186a13.16,13.16,0,0,1,13.16,13.16v0A13.16,13.16,0,0,1,378.94,52.3h-186a13.16,13.16,0,0,1-13.16-13.16v0A13.15,13.15,0,0,1,192.94,26Z"/><rect class="cls-11" x="183.12" y="28.77" width="162.29" height="20.75" rx="10.37"/><path class="cls-14" d="M252.3,89.54l6.16-19.89h-2a10.37,10.37,0,0,0-4.11,19.89Z" transform="translate(-62.92 -40.88)"/><polygon class="cls-14" points="215.83 28.77 209.4 49.52 229.69 49.52 236.12 28.77 215.83 28.77"/><polygon class="cls-14" points="256.4 28.77 249.97 49.52 270.26 49.52 276.69 28.77 256.4 28.77"/><polygon class="cls-14" points="296.98 28.77 290.55 49.52 310.83 49.52 317.26 28.77 296.98 28.77"/><path class="cls-14" d="M400.38,69.93,394,90.4H398a10.38,10.38,0,0,0,2.43-20.47Z" transform="translate(-62.92 -40.88)"/><path class="cls-17" d="M395.64,55.15l3.28,3.28a2.44,2.44,0,0,0,3.45,0l3.28-3.28A2.44,2.44,0,0,0,403.92,51h-6.56a2.44,2.44,0,0,0-1.72,4.17Z" transform="translate(-62.92 -40.88)"/></svg>